HIERARCHY
ROOT hip
{
	OFFSET 0.000000 0.000000 0.000000 
	CHANNELS 6 Xposition Yposition Zposition Xrotation Zrotation Yrotation
	JOINT abdomen
	{
		OFFSET 0.000000 3.402643 0.000000 
		CHANNELS 3 Xrotation Zrotation Yrotation
		JOINT chest
		{
			OFFSET 0.000000 8.438565 -0.680529 
			CHANNELS 3 Xrotation Zrotation Yrotation
			JOINT neck
			{
				OFFSET 0.000000 10.207942 -0.272212 
				CHANNELS 3 Xrotation Zrotation Yrotation
				JOINT head
				{
					OFFSET 0.000000 3.130431 0.000000 
					CHANNELS 3 Xrotation Zrotation Yrotation
					End Site
					{
						OFFSET 0.000000 3.130435 0.000000 
					}
				}
			}
			JOINT lCollar
			{
				OFFSET 3.470700 6.669187 -0.816635 
				CHANNELS 3 Yrotation Zrotation Xrotation
				JOINT lShldr
				{
					OFFSET 3.198488 0.000000 0.000000 
					CHANNELS 3 Zrotation Yrotation Xrotation
					JOINT lForeArm
					{
						OFFSET 10.139888 0.000000 0.000000 
						CHANNELS 3 Yrotation Zrotation Xrotation
						JOINT lHand
						{
							OFFSET 8.370511 0.000000 0.000000 
							CHANNELS 3 Zrotation Yrotation Xrotation
							End Site
							{
								OFFSET 4.083176 0.000000 0.000000 
							}
						}
					}
				}
			}
			JOINT rCollar
			{
				OFFSET -3.470700 6.669187 -0.816635 
				CHANNELS 3 Yrotation Zrotation Xrotation
				JOINT rShldr
				{
					OFFSET -3.198488 0.000000 0.000000 
					CHANNELS 3 Zrotation Yrotation Xrotation
					JOINT rForeArm
					{
						OFFSET -10.139888 0.000000 0.000000 
						CHANNELS 3 Yrotation Zrotation Xrotation
						JOINT rHand
						{
							OFFSET -8.370511 0.000000 0.000000 
							CHANNELS 3 Zrotation Yrotation Xrotation
							End Site
							{
								OFFSET -4.083176 0.000000 0.000000 
							}
						}
					}
				}
			}
		}
	}
	JOINT lThigh
	{
		OFFSET 5.308129 -1.633274 1.361059 
		CHANNELS 3 Xrotation Zrotation Yrotation
		JOINT lShin
		{
			OFFSET -2.041588 -20.007561 0.000000 
			CHANNELS 3 Xrotation Zrotation Yrotation
			JOINT lFoot
			{
				OFFSET 0.000000 -19.190928 -1.224953 
				CHANNELS 3 Xrotation Yrotation Zrotation
				End Site
				{
					OFFSET 0.000000 -2.449906 4.627600 
				}
			}
		}
	}
	JOINT rThigh
	{
		OFFSET -5.308129 -1.633274 1.361059 
		CHANNELS 3 Xrotation Zrotation Yrotation
		JOINT rShin
		{
			OFFSET 2.041588 -20.007561 0.000000 
			CHANNELS 3 Xrotation Zrotation Yrotation
			JOINT rFoot
			{
				OFFSET 0.000000 -19.190928 -1.224953 
				CHANNELS 3 Xrotation Yrotation Zrotation
				End Site
				{
					OFFSET 0.000000 -2.449906 4.627600 
				}
			}
		}
	}
}
MOTION
Frames: 13
Frame Time: 0.066667
0.000000 42.014908 0.240040 0.000000 0.000000 0.000000 0.000000 0.000000 0.000000 0.000000 0.000000 0.000000 0.000000 0.000000 0.000000 0.000000 0.000000 0.000000 2.021920 -5.690310 -0.063351 -70.102905 9.861107 15.916110 -22.759424 -9.418341 0.045343 5.965645 0.117430 0.181902 -2.021920 5.690310 -0.063351 69.966431 -9.978408 15.846997 22.820194 9.395720 0.084374 -5.915212 -0.180888 0.224166 -7.542277 3.922175 0.136309 15.800026 -3.271755 -0.906147 -8.555586 1.080559 -0.817622 -7.531943 -4.331991 0.100592 15.738582 3.231687 0.595472 -8.598962 -1.571022 0.966009 
-0.009779 40.951283 0.984980 1.039874 0.000000 0.000000 3.041491 -0.010382 -0.005770 1.678335 -0.012690 0.000000 0.000000 0.000000 0.000000 -5.236052 0.000000 0.000000 2.021920 -5.690310 -0.063351 -64.835197 3.148717 15.916110 -32.258278 -9.443340 0.045343 14.043267 0.003661 -3.402090 -1.987429 5.603997 -0.080586 63.699547 -4.736889 15.828406 29.801970 8.592854 0.052779 -13.076484 0.402169 -2.509512 -13.695740 4.393447 0.155708 28.742113 -3.795502 -2.170262 -16.351728 1.227504 -0.321765 -13.699534 -4.733909 0.117311 28.691128 3.730682 1.859204 -16.393858 -1.749274 0.480632 
-0.021114 39.719078 1.867541 2.277890 0.000000 0.000000 6.470625 -0.022965 -0.012762 3.567872 -0.028069 0.000000 0.000000 0.000000 0.000000 -11.339706 0.000000 0.000000 2.021920 -5.690310 -0.063351 -58.445065 -5.061903 15.916110 -42.886536 -9.466134 0.045343 23.923843 -0.135502 -7.768245 -1.945238 5.498417 -0.101668 56.033875 1.674556 15.805665 37.943481 7.608559 0.014131 -21.833952 1.113142 -5.824437 -19.026884 4.796875 0.138113 40.104717 -4.011302 -3.379607 -23.579586 1.298674 0.144003 -19.048920 -5.080299 0.153650 40.082657 3.926819 3.058195 -23.653046 -1.844056 0.024008 
-0.028479 38.925835 2.632665 3.410629 0.000000 0.000000 7.728567 -0.036651 -0.020368 4.233068 -0.044796 0.000000 0.000000 0.000000 0.000000 -15.648802 0.000000 0.000000 2.021920 -5.690310 -0.063351 -51.422523 -14.742460 15.916110 -45.800575 -9.418341 0.045343 35.573330 -0.299580 -12.745397 -1.895495 5.373938 -0.126525 46.995823 9.233835 15.778854 43.718735 6.426713 -0.031435 -32.137928 1.930065 -9.455488 -21.753508 4.999744 0.117760 45.926144 -4.019885 -4.000649 -27.784700 1.295880 0.379086 -21.771427 -5.245333 0.185849 45.903393 3.937873 3.656293 -27.863039 -1.857264 -0.206796 
-0.028117 39.026802 3.099450 4.235187 0.000000 0.000000 4.792232 -0.051124 -0.028411 2.532474 -0.062484 0.000000 0.000000 0.000000 0.000000 -16.170616 0.000000 0.000000 2.021920 -5.690311 -0.063351 -43.959969 -26.118122 15.916114 -39.212410 -9.257865 0.045343 49.262691 -0.492388 -18.355635 -1.837042 5.227662 -0.155734 36.375183 18.116774 15.747352 47.974545 5.008119 -0.084980 -44.216373 2.860231 -13.334896 -21.371166 4.960725 0.121210 44.740711 -4.025191 -3.864492 -27.804991 1.278621 0.326213 -21.397251 -5.211788 0.182253 44.737900 3.936662 3.529817 -27.902630 -1.850139 -0.156854 
-0.023953 39.796318 3.272531 4.745866 0.000000 0.000000 -1.236534 -0.065320 -0.036300 -0.934873 -0.079836 0.000000 0.000000 0.000000 0.000000 -13.631961 0.000000 0.000000 2.021920 -5.690311 -0.063351 -37.090385 -37.275089 15.916112 -53.457817 -9.100696 0.045343 62.688873 -0.681489 -23.858528 -1.779712 5.084196 -0.184381 25.958706 26.828941 15.716449 69.082382 3.616858 -0.137496 -56.062672 3.772579 -17.140554 -18.678011 4.740391 0.143165 38.232594 -3.995563 -3.175086 -24.529638 1.271681 0.061444 -18.681702 -5.014748 0.148076 38.181595 3.913975 2.843353 -24.574221 -1.838984 0.107365 
-0.021836 40.838497 3.202923 4.986269 0.000000 0.000000 -8.474658 -0.077992 -0.043342 -5.134818 -0.095324 0.000000 0.000000 0.000000 0.000000 -9.439524 0.000000 0.000000 2.021920 -5.690310 -0.063351 -32.056969 -45.764854 15.916110 -107.508896 -9.102350 0.045343 72.905365 -0.825383 -28.323032 -1.736088 4.975027 -0.206180 18.032410 33.458363 15.692932 116.296326 2.592838 -0.177457 -65.111610 4.501462 -20.486784 -14.311937 4.385087 0.167331 27.937210 -3.768051 -2.113165 -18.868116 1.222669 -0.382778 -14.322865 -4.685851 0.104947 27.897724 3.693935 1.792101 -18.923893 -1.774851 0.505193 
-0.027610 41.757462 2.941643 5.000000 0.000000 0.000000 -15.039063 -0.087891 -0.048843 -9.033203 -0.107422 0.000000 0.000000 0.000000 0.000000 -5.000000 0.000000 0.000000 2.021920 -5.690310 -0.063351 -30.102905 -49.138893 15.916110 -142.759430 -9.418343 0.045343 76.965645 -0.882570 -30.818100 -1.718750 4.931641 -0.214844 14.882309 36.093056 15.683588 144.876236 2.275963 -0.193338 -68.797974 4.881233 -22.987900 -9.243692 3.981882 0.140686 15.878527 -3.276402 -0.921712 -11.931658 1.109883 -0.880251 -9.227967 -4.284965 0.100005 15.797196 3.236012 0.609659 -11.968704 -1.648654 0.921080 
-0.044237 42.253540 2.551314 4.844630 0.000000 0.000000 -19.448078 -0.094114 -0.052302 -11.812508 -0.115029 0.000000 0.000000 0.000000 0.000000 -1.448984 0.000000 0.000000 2.021920 -5.690310 -0.063351 -30.102905 -49.138893 15.916110 -142.559433 -10.118342 0.045343 76.965645 -0.882570 -32.418098 -1.718750 4.931641 -0.214844 14.882309 36.093056 15.683588 144.676239 2.475963 -0.193338 -68.997971 5.081233 -25.587900 -6.744149 3.797307 0.125600 9.880055 -2.939212 -0.379834 -8.287464 1.020392 -1.146878 -6.660187 -4.059429 0.102301 9.676626 2.902144 0.062069 -8.244908 -1.551765 1.108912 
-0.063124 42.411919 2.140985 4.633607 0.000000 0.000000 -21.825634 -0.097151 -0.053989 -13.521730 -0.118740 0.000000 0.000000 0.000000 0.000000 1.162290 0.000000 0.000000 2.021920 -5.690310 -0.063351 -30.102905 -49.138893 15.916110 -142.359436 -10.818342 0.045343 76.965645 -0.882570 -34.018097 -1.718750 4.931641 -0.214844 14.882309 36.093056 15.683588 144.476242 2.675963 -0.193338 -69.197968 5.281233 -28.187901 -5.885406 3.731591 0.111274 7.215736 -2.776139 -0.144164 -6.264838 0.961451 -1.275581 -5.716239 -3.936121 0.108682 6.831267 2.736606 -0.183626 -6.139439 -1.495844 1.169939 
-0.072791 42.414001 1.831308 4.494348 0.000000 0.000000 -22.697071 -0.097837 -0.054371 -14.426511 -0.119579 0.000000 0.000000 0.000000 0.000000 3.053691 0.000000 0.000000 2.021920 -5.690310 -0.063351 -30.102905 -49.138893 15.916110 -142.159439 -11.518342 0.045343 76.965645 -0.882570 -35.618099 -1.718750 4.931641 -0.214844 14.882309 36.093056 15.683588 144.276245 2.875963 -0.193338 -69.397972 5.481233 -30.787901 -6.120766 3.740360 0.120660 7.010674 -2.763623 -0.140621 -5.691716 0.957830 -1.300171 -6.198038 -3.934250 0.109959 7.140876 2.750170 -0.163714 -5.839680 -1.486988 1.154863 
-0.065714 42.405403 1.707376 4.513164 0.000000 0.000000 -22.587723 -0.097007 -0.053909 -14.792480 -0.118564 0.000000 0.000000 0.000000 0.000000 4.445084 0.000000 0.000000 2.021920 -5.690310 -0.063351 -30.102905 -49.138893 15.916110 -141.959442 -12.218342 0.045343 76.965645 -0.882570 -37.218102 -1.718750 4.931641 -0.214844 14.882309 36.093056 15.683588 144.076233 3.075963 -0.193338 -69.597977 5.681233 -33.387901 -6.549562 3.745593 0.117841 7.461041 -2.789568 -0.170232 -5.741666 0.955181 -1.270608 -6.421356 -3.944181 0.101581 7.151798 2.748200 -0.153426 -5.648954 -1.483314 1.157398 
-0.050189 42.388580 1.712032 4.611940 0.000000 0.000000 -22.022921 -0.095497 -0.053070 -14.885273 -0.116719 0.000000 0.000000 0.000000 0.000000 5.556334 0.000000 0.000000 2.021920 -5.690310 -0.063351 -30.102905 -49.138893 15.916110 -141.759430 -12.918343 0.045343 76.965645 -0.882570 -38.818100 -1.718750 4.931641 -0.214844 14.882309 36.093056 15.683588 143.876236 3.275963 -0.193338 -69.797974 5.881233 -35.987900 -6.813437 3.732643 0.128148 7.795259 -2.813661 -0.201924 -5.910182 0.953475 -1.220341 -6.674675 -3.978641 0.101768 7.466165 2.773114 -0.132842 -5.800988 -1.480598 1.174980 
